<svg xmlns="http://www.w3.org/2000/svg" viewBox="0 0 350 350">
	<path id="innerCircle" class="inner"
        d="M 159.00,41.21
           C 159.00,41.21 184.00,41.21 184.00,41.21
             196.38,41.02 209.32,44.43 221.00,48.33
             232.29,52.11 243.16,58.01 253.00,64.67
             260.87,70.00 264.35,73.35 271.00,80.00
             318.74,127.74 323.77,205.68 281.99,259.00
             272.22,271.47 257.80,284.24 244.00,292.13
             227.14,301.77 203.56,309.97 184.00,310.00
             184.00,310.00 165.00,310.00 165.00,310.00
             155.77,309.89 141.83,306.60 133.00,303.67
             94.40,290.85 63.84,262.20 49.42,224.00
             40.77,201.07 40.96,190.69 41.00,167.00
             41.02,156.64 43.75,143.84 47.00,134.00
             57.34,102.70 77.50,76.41 106.00,59.45
             123.62,48.97 139.05,44.69 159.00,41.21 Z" />
	<path id="outlineCircle" class="outer"
        d="M 166.00,41.42
           C 181.20,39.57 202.48,42.83 217.00,47.67
             243.79,56.59 265.49,71.42 282.76,94.00
             321.70,144.90 318.36,218.84 275.07,266.00
             263.50,278.61 251.33,288.09 236.00,295.75
             215.57,305.97 193.72,310.26 171.00,310.00
             159.09,309.86 144.29,306.77 133.00,303.00
             118.66,298.22 106.06,291.99 94.00,282.76
             43.99,244.51 27.15,176.12 53.31,119.00
             70.36,81.77 101.92,56.46 141.00,45.43
             149.32,43.08 157.53,42.63 166.00,41.42 Z
           M 163.00,61.28
           C 163.00,61.28 146.00,64.15 146.00,64.15
             110.71,73.57 82.34,99.25 68.80,133.00
             63.81,145.43 61.02,156.51 61.00,170.00
             60.98,182.77 60.88,193.47 64.43,206.00
             74.17,240.39 98.23,267.41 131.00,281.42
             142.71,286.43 155.18,289.85 168.00,290.00
             192.76,290.29 205.36,289.08 228.00,277.75
             241.47,271.02 253.36,261.40 263.13,250.00
             301.65,205.02 298.87,135.94 256.96,94.04
             231.89,68.96 197.94,58.03 163.00,61.28 Z" />
</svg>
