<svg xmlns="http://www.w3.org/2000/svg"
     viewBox="0 0 350 350">
  <path id="CreateIcon"
        d="M 43.00,71.00
           C 46.45,71.00 57.40,71.36 60.00,70.40
             63.28,69.19 67.23,64.72 70.00,62.28
             76.65,56.44 83.52,50.81 91.00,46.05
             110.53,33.62 139.60,22.28 163.00,22.00
             163.00,22.00 187.00,22.00 187.00,22.00
             200.46,22.16 220.48,27.55 233.00,32.60
             251.50,40.07 268.64,51.15 283.00,65.04
             330.40,110.92 340.93,184.16 313.11,243.00
             293.10,285.33 251.67,316.36 206.00,325.55
             190.95,328.58 178.20,328.17 163.00,328.00
             144.25,327.78 118.39,319.24 102.00,310.30
             77.77,297.09 58.55,279.75 44.20,256.00
             31.98,235.76 22.04,208.91 22.00,185.00
             22.00,185.00 22.00,163.00 22.00,163.00
             22.07,157.37 23.80,146.56 25.13,141.00
             25.72,138.54 27.91,131.02 27.65,129.00
             27.20,125.48 24.03,123.58 23.17,121.00
             22.06,117.69 24.95,115.17 27.02,113.00
             30.23,109.64 39.28,101.20 41.26,98.00
             44.11,93.40 43.00,77.10 43.00,71.00 Z
           M 274.00,273.00
           C 285.20,264.60 297.83,243.07 303.42,230.00
             314.14,204.94 314.31,190.50 314.00,164.00
             313.64,133.39 295.28,97.31 273.99,76.01
             256.25,58.28 229.70,43.42 205.00,38.45
             190.22,35.47 178.88,35.83 164.00,36.00
             156.79,36.09 144.02,38.42 137.00,40.43
             123.47,44.29 112.02,49.79 100.00,57.00
             102.70,60.77 109.75,68.84 114.00,70.40
             116.89,71.46 134.64,71.00 139.00,71.00
             139.00,71.00 139.00,89.00 139.00,89.00
             139.00,91.09 138.88,94.06 139.60,96.00
             140.96,99.69 151.31,110.04 155.00,111.40
             156.94,112.12 159.91,112.00 162.00,112.00
             162.00,112.00 211.00,112.00 211.00,112.00
             221.97,112.02 223.45,116.45 231.00,124.00
             231.00,124.00 252.00,145.00 252.00,145.00
             252.00,145.00 266.00,159.00 266.00,159.00
             268.41,161.41 272.23,164.82 273.40,168.00
             274.12,169.94 274.00,172.91 274.00,175.00
             274.00,175.00 274.00,273.00 274.00,273.00 Z
           M 92.00,68.00
           C 92.00,68.00 74.00,83.26 74.00,83.26
             74.00,83.26 56.00,84.00 56.00,84.00
             56.00,89.05 56.57,98.67 54.57,103.00
             52.48,107.50 43.98,114.44 40.00,120.00
             40.00,120.00 54.49,136.00 54.49,136.00
             54.49,136.00 56.00,154.00 56.00,154.00
             61.17,154.00 70.48,153.64 75.00,156.01
             75.00,156.01 92.00,171.00 92.00,171.00
             96.10,166.90 105.07,156.85 110.00,155.03
             113.85,153.61 121.66,154.00 126.00,154.00
             126.00,148.80 125.50,140.56 127.98,136.00
             127.98,136.00 143.00,119.00 143.00,119.00
             143.00,119.00 127.51,102.00 127.51,102.00
             127.51,102.00 126.00,84.00 126.00,84.00
             121.16,84.00 111.19,84.13 107.00,81.98
             103.77,80.33 95.09,71.09 92.00,68.00 Z
           M 205.00,126.00
           C 205.00,126.00 163.00,126.00 163.00,126.00
             160.91,126.00 157.94,125.88 156.00,126.60
             151.49,128.26 141.26,138.49 139.60,143.00
             138.88,144.94 139.00,147.91 139.00,150.00
             139.00,150.00 139.00,167.00 139.00,167.00
             139.00,167.00 122.00,167.00 122.00,167.00
             111.03,167.02 109.55,171.45 102.00,179.00
             94.78,186.22 91.02,186.83 91.00,197.00
             91.00,197.00 91.00,279.00 91.00,279.00
             91.00,281.37 90.78,284.61 92.02,286.68
             93.42,289.01 98.59,292.07 101.00,293.58
             108.79,298.42 115.55,301.66 124.00,305.14
             156.17,318.40 198.20,317.02 230.00,303.42
             237.54,300.20 244.10,296.75 251.00,292.31
             253.39,290.77 257.59,288.25 258.98,285.82
             260.21,283.66 260.00,280.44 260.00,278.00
             260.00,278.00 260.00,181.00 260.00,181.00
             260.00,181.00 205.00,181.00 205.00,181.00
             205.00,181.00 205.00,126.00 205.00,126.00 Z
           M 220.00,133.00
           C 220.00,133.00 219.00,145.00 219.00,145.00
             219.00,145.00 219.00,167.00 219.00,167.00
             219.00,167.00 253.00,167.00 253.00,167.00
             253.00,167.00 220.00,133.00 220.00,133.00 Z
           M 41.00,139.00
           C 38.05,143.35 37.70,148.89 37.00,154.00
             35.55,164.58 35.88,175.33 36.00,186.00
             36.27,208.35 46.78,234.59 59.00,253.00
             63.40,259.62 70.68,269.38 77.00,274.00
             77.00,274.00 77.00,183.00 77.00,183.00
             76.99,176.17 75.22,170.26 68.00,167.60
             66.06,166.88 63.09,167.00 61.00,167.00
             61.00,167.00 43.00,167.00 43.00,167.00
             43.00,159.32 44.41,145.48 41.00,139.00 Z
           M 122.00,231.00
           C 122.00,231.00 122.00,255.00 122.00,255.00
             121.80,265.34 114.01,261.65 113.02,260.40
             111.77,258.81 112.00,254.99 112.00,253.00
             112.00,253.00 112.00,221.00 112.00,221.00
             112.01,219.00 111.88,216.02 113.02,214.31
             115.12,211.17 121.92,211.47 124.62,213.60
             125.97,214.66 127.10,216.55 127.98,218.00
             127.98,218.00 132.42,226.00 132.42,226.00
             132.42,226.00 141.00,241.00 141.00,241.00
             141.00,241.00 141.00,219.00 141.00,219.00
             141.20,208.66 148.99,212.35 149.98,213.60
             151.23,215.19 151.00,219.01 151.00,221.00
             151.00,221.00 151.00,253.00 151.00,253.00
             150.99,254.66 151.06,257.35 150.40,258.85
             148.67,262.82 142.49,262.63 139.53,260.26
             138.01,259.05 136.61,256.67 135.60,255.00
             135.60,255.00 130.58,246.00 130.58,246.00
             130.58,246.00 122.00,231.00 122.00,231.00 Z
           M 167.00,246.00
           C 168.71,250.95 171.34,253.95 177.00,253.52
             179.95,253.18 185.74,250.73 187.97,253.52
             188.68,254.51 188.84,255.86 188.72,256.98
             188.10,262.80 180.45,262.95 176.00,263.00
             170.12,263.06 165.72,263.29 161.21,258.79
             152.62,250.21 153.99,228.27 167.00,223.85
             176.34,220.68 187.79,224.52 189.67,235.00
             190.14,237.59 190.40,242.40 188.40,244.40
             185.78,247.03 171.19,246.00 167.00,246.00 Z
           M 215.00,246.00
           C 214.39,252.72 212.98,263.12 204.02,261.85
             199.79,261.25 198.92,258.62 197.67,255.00
             197.67,255.00 189.89,229.02 189.89,229.02
             189.37,223.04 196.39,223.57 198.58,225.02
             200.94,226.58 201.67,230.43 202.42,233.00
             202.42,233.00 206.00,244.00 206.00,244.00
             206.58,241.13 209.82,228.12 211.14,226.31
             213.10,223.61 217.90,223.31 220.30,225.60
             222.42,227.61 225.31,240.04 227.00,244.00
             227.72,240.79 231.05,227.47 232.85,225.60
             234.66,223.71 243.11,222.11 242.38,229.02
             242.38,229.02 235.67,251.00 235.67,251.00
             234.90,253.34 233.78,257.94 232.28,259.69
             229.69,262.70 223.39,262.82 220.85,259.69
             218.82,257.18 217.30,249.30 217.00,246.00
             217.00,246.00 215.00,246.00 215.00,246.00 Z
           M 179.00,237.00
           C 175.81,231.03 171.19,231.03 168.00,237.00
             168.00,237.00 179.00,237.00 179.00,237.00 Z" />
</svg>
