<svg xmlns="http://www.w3.org/2000/svg" viewBox="0 0 350 350">
  <path id="openDocument"
        d="M 242.00,314.00
           C 242.00,314.00 229.00,318.95 229.00,318.95
             221.84,321.57 214.46,323.72 207.00,325.34
             191.45,328.71 180.58,328.02 165.00,328.00
             151.71,327.98 135.55,324.01 123.00,319.66
             109.62,315.01 95.40,307.51 84.00,299.12
             53.17,276.41 32.01,243.58 24.45,206.00
             21.42,190.95 21.83,178.20 22.00,163.00
             22.20,146.10 29.67,122.26 36.89,107.00
             56.92,64.62 98.30,33.64 144.00,24.45
             159.49,21.33 170.47,21.93 186.00,22.00
             197.81,22.06 213.77,25.89 225.00,29.67
             276.81,47.09 313.82,89.83 325.34,143.00
             328.61,158.08 328.18,171.71 328.00,187.00
             327.87,198.15 323.91,214.36 320.33,225.00
             315.55,239.21 307.68,255.55 298.00,267.00
             302.03,268.80 307.73,271.80 310.57,275.18
             319.42,285.71 309.30,295.44 300.00,300.00
             302.82,303.99 306.26,307.96 306.80,313.00
             307.71,321.51 302.28,325.21 296.00,329.33
             292.78,331.44 289.94,333.38 286.00,333.80
             277.81,334.68 272.74,329.03 270.00,322.00
             262.49,324.87 257.70,330.54 249.04,326.23
             246.21,324.83 244.53,322.90 243.34,319.99
             242.56,318.06 242.29,316.04 242.00,314.00 Z
           M 287.00,259.00
           C 301.96,236.56 313.96,211.60 314.00,184.00
             314.00,184.00 314.00,164.00 314.00,164.00
             313.74,141.80 303.14,115.30 291.00,97.00
             271.76,68.02 239.30,45.35 205.00,38.45
             190.22,35.47 178.88,35.83 164.00,36.00
             143.79,36.24 119.09,45.34 102.00,55.81
             92.65,61.54 80.47,70.93 73.17,79.00
             56.70,97.21 43.33,120.75 38.45,145.00
             35.47,159.78 35.83,171.12 36.00,186.00
             36.20,202.40 42.54,222.37 49.76,237.00
             55.20,248.04 67.28,266.88 77.00,274.00
             77.00,274.00 77.00,112.00 77.00,112.00
             77.00,112.00 211.00,112.00 211.00,112.00
             213.65,112.01 216.57,111.81 219.00,113.02
             221.79,114.42 226.61,119.61 229.00,122.00
             229.00,122.00 246.00,139.00 246.00,139.00
             246.00,139.00 263.00,156.00 263.00,156.00
             270.38,163.38 273.98,164.34 274.00,175.00
             274.00,175.00 274.00,243.00 274.00,243.00
             274.02,252.79 277.88,255.51 287.00,259.00 Z
           M 205.00,126.00
           C 205.00,126.00 91.00,126.00 91.00,126.00
             91.00,126.00 91.00,279.00 91.00,279.00
             91.00,281.37 90.78,284.61 92.02,286.68
             93.34,288.88 97.76,291.53 100.00,292.95
             108.13,298.10 114.20,300.99 123.00,304.72
             157.27,319.22 206.48,317.43 239.00,299.00
             239.00,299.00 231.20,262.00 231.20,262.00
             230.38,257.90 227.88,247.59 228.37,244.00
             229.09,238.73 232.04,236.07 236.00,233.00
             232.61,229.93 229.37,230.53 227.60,235.04
             226.63,237.51 227.06,246.77 227.00,250.00
             226.80,260.64 219.63,258.10 218.02,255.69
             216.79,253.85 217.00,250.18 217.00,248.00
             216.99,244.22 216.57,227.51 217.60,225.15
             219.30,221.25 222.89,222.58 226.00,222.34
             230.31,222.02 235.40,219.24 240.96,222.89
             246.16,226.32 245.92,230.80 247.93,233.68
             250.07,236.74 256.59,240.33 260.00,242.00
             260.00,242.00 260.00,181.00 260.00,181.00
             260.00,181.00 205.00,181.00 205.00,181.00
             205.00,181.00 205.00,126.00 205.00,126.00 Z
           M 220.00,133.00
           C 220.00,133.00 219.00,145.00 219.00,145.00
             219.00,145.00 219.00,167.00 219.00,167.00
             219.00,167.00 253.00,167.00 253.00,167.00
             253.00,167.00 220.00,133.00 220.00,133.00 Z
           M 116.00,210.53
           C 124.81,209.08 133.66,209.37 139.58,217.02
             146.58,226.04 147.34,254.10 129.00,258.47
             121.98,260.14 111.67,259.22 106.53,253.67
             99.07,245.63 99.28,225.66 105.80,217.09
             108.62,213.39 111.69,211.87 116.00,210.53 Z
           M 122.00,219.42
           C 111.86,221.58 111.54,229.13 112.04,238.00
             112.40,244.18 116.03,250.23 123.00,249.58
             131.73,248.76 133.00,241.15 133.00,234.00
             133.00,226.12 131.19,219.65 122.00,219.42 Z
           M 158.00,258.00
           C 158.00,260.41 158.40,266.60 156.98,268.40
             155.15,270.71 149.93,270.40 148.60,267.69
             147.87,266.21 148.00,262.71 148.00,261.00
             148.00,261.00 148.00,231.00 148.00,231.00
             148.00,229.01 147.77,225.18 149.02,223.60
             150.38,221.89 164.28,220.89 167.00,221.04
             182.30,221.91 182.91,246.28 175.44,254.79
             170.90,259.96 164.07,259.48 158.00,258.00 Z
           M 192.00,243.00
           C 193.67,246.33 194.90,249.50 199.02,250.42
             203.09,251.01 209.36,247.31 211.81,250.42
             212.50,251.49 212.67,252.80 212.46,253.91
             211.40,259.51 202.27,259.05 198.00,259.00
             176.75,258.72 179.84,231.29 187.33,224.56
             190.92,221.33 195.37,220.83 200.00,221.04
             208.42,221.42 213.08,226.80 213.82,235.00
             214.02,237.11 214.01,239.79 212.40,241.40
             209.80,244.01 196.09,243.00 192.00,243.00 Z
           M 203.00,235.00
           C 201.28,227.46 195.15,228.11 193.00,235.00
             193.00,235.00 203.00,235.00 203.00,235.00 Z
           M 164.89,231.08
           C 154.67,231.62 156.68,247.67 163.00,249.04
             170.60,250.68 169.92,235.38 167.26,232.47
             166.05,231.15 165.81,231.53 164.89,231.08 Z
           M 242.00,246.00
           C 242.00,246.00 245.20,267.00 245.20,267.00
             245.20,267.00 255.00,315.00 255.00,315.00
             255.00,315.00 273.00,304.00 273.00,304.00
             273.00,304.00 284.00,321.00 284.00,321.00
             284.00,321.00 294.00,315.00 294.00,315.00
             294.00,315.00 282.00,296.00 282.00,296.00
             282.00,296.00 300.00,285.00 300.00,285.00
             300.00,285.00 300.00,283.00 300.00,283.00
             300.00,283.00 264.00,259.95 264.00,259.95
             264.00,259.95 242.00,246.00 242.00,246.00 Z" />
</svg>
