<svg xmlns="http://www.w3.org/2000/svg" viewBox="0 0 350 350">
	<path id="innerSquare" class="inner"
        d="M 41.00,41.00
           C 41.00,41.00 310.00,41.00 310.00,41.00
             310.00,41.00 310.00,310.00 310.00,310.00
             310.00,310.00 41.00,310.00 41.00,310.00
             41.00,310.00 41.00,41.00 41.00,41.00 Z" />
  <path id="outlineSquare" class="outer"
        d="M 41.00,41.00
           C 41.00,41.00 310.00,41.00 310.00,41.00
             310.00,41.00 310.00,310.00 310.00,310.00
             310.00,310.00 41.00,310.00 41.00,310.00
             41.00,310.00 41.00,41.00 41.00,41.00 Z
           M 282.00,69.00
           C 282.00,69.00 69.00,69.00 69.00,69.00
             69.00,69.00 69.00,282.00 69.00,282.00
             69.00,282.00 282.00,282.00 282.00,282.00
             282.00,282.00 282.00,69.00 282.00,69.00 Z" />
</svg>
