<svg xmlns="http://www.w3.org/2000/svg" viewBox="0 0 350 350">
  <path id="innerTriangle" class="inner"
        d="M 22.00,41.00
           C 22.00,41.00 328.00,41.00 328.00,41.00
             328.00,41.00 311.85,71.00 311.85,71.00
             311.85,71.00 279.42,128.00 279.42,128.00
             279.42,128.00 218.58,235.00 218.58,235.00
             218.58,235.00 176.00,310.00 176.00,310.00
             176.00,310.00 174.00,310.00 174.00,310.00
             174.00,310.00 138.85,248.00 138.85,248.00
             138.85,248.00 66.14,120.00 66.14,120.00
             66.14,120.00 34.23,64.00 34.23,64.00
             34.23,64.00 22.00,41.00 22.00,41.00 Z" />
	<path id="outlineTriangle" class="outer"
        d="M 22.00,41.00
           C 22.00,41.00 328.00,41.00 328.00,41.00
             328.00,41.00 289.42,109.00 289.42,109.00
             289.42,109.00 220.15,231.00 220.15,231.00
             220.15,231.00 191.72,281.00 191.72,281.00
             191.72,281.00 176.00,309.00 176.00,309.00
             176.00,309.00 174.00,309.00 174.00,309.00
             174.00,309.00 159.42,283.00 159.42,283.00
             159.42,283.00 129.85,231.00 129.85,231.00
             129.85,231.00 60.58,109.00 60.58,109.00
             60.58,109.00 22.00,41.00 22.00,41.00 Z
           M 294.00,61.00
           C 294.00,61.00 56.00,61.00 56.00,61.00
             56.00,61.00 91.15,123.00 91.15,123.00
             91.15,123.00 146.85,221.00 146.85,221.00
             146.85,221.00 174.00,269.00 174.00,269.00
             174.00,269.00 176.00,269.00 176.00,269.00
             176.00,269.00 203.15,221.00 203.15,221.00
             203.15,221.00 258.85,123.00 258.85,123.00
             258.85,123.00 294.00,61.00 294.00,61.00 Z" />
</svg>
