<svg xmlns="http://www.w3.org/2000/svg" viewBox="0 0 350 350">
  <path id="app-icon"
        d="M 105.00,278.00
           C 105.00,278.00 105.00,155.00 105.00,155.00
             105.02,142.87 109.17,140.94 114.63,130.92
             114.63,130.92 143.53,80.72 143.53,80.72
             143.53,80.72 166.84,40.28 166.84,40.28
             168.51,37.54 172.71,27.36 176.56,28.94
             178.60,29.78 183.79,39.59 185.23,42.09
             185.23,42.09 206.42,78.91 206.42,78.91
             206.42,78.91 236.37,130.92 236.37,130.92
             241.83,140.94 245.98,142.87 246.00,155.00
             246.00,155.00 246.00,238.00 246.00,238.00
             246.00,246.65 245.06,271.19 247.00,278.00
             249.56,273.43 257.02,267.15 260.96,263.00
             265.95,257.75 271.15,250.29 274.63,243.92
             283.29,228.09 287.43,214.93 289.17,197.00
             289.57,192.89 290.14,191.56 289.96,187.00
             289.96,187.00 288.74,173.09 288.74,173.09
             288.74,173.09 287.22,167.83 287.22,167.83
             284.36,153.67 283.97,150.92 277.09,137.72
             274.12,132.02 271.56,126.47 267.63,121.28
             261.09,112.63 249.74,101.21 240.96,94.86
             240.96,94.86 222.73,83.37 222.73,83.37
             221.18,81.72 219.80,78.38 218.53,76.28
             215.19,70.80 211.08,65.04 209.00,59.00
             222.72,61.76 233.35,66.78 245.16,74.14
             266.22,87.27 282.93,103.88 294.38,126.17
             307.90,152.47 308.33,171.37 308.00,200.00
             307.67,227.72 294.26,255.59 276.25,276.09
             265.76,288.02 244.79,306.38 229.00,310.00
             229.00,310.00 229.00,221.00 229.00,221.00
             229.00,212.13 229.92,184.76 228.00,178.00
             226.43,186.38 220.20,195.15 213.99,200.83
             211.06,203.51 205.05,207.11 203.43,210.18
             201.88,213.13 202.01,217.72 202.00,221.00
             202.00,221.00 202.00,311.00 202.00,311.00
             201.98,320.65 201.48,319.35 189.00,321.00
             189.00,321.00 189.00,214.00 189.00,214.00
             181.78,215.29 170.09,215.72 163.00,214.00
             163.00,214.00 162.00,230.00 162.00,230.00
             162.00,230.00 162.00,321.00 162.00,321.00
             149.52,319.35 149.02,320.65 149.00,311.00
             149.00,311.00 149.00,220.00 149.00,220.00
             149.00,216.94 149.19,212.91 147.69,210.18
             145.70,206.59 139.73,204.05 134.17,197.99
             127.94,191.17 125.80,186.05 122.00,178.00
             122.00,178.00 122.00,310.00 122.00,310.00
             106.21,306.38 85.24,288.02 74.75,276.09
             63.41,263.19 55.63,250.18 49.82,234.01
             49.82,234.01 46.83,225.91 46.83,225.91
             42.40,208.58 42.80,193.63 43.00,176.00
             43.07,169.98 45.60,154.74 47.38,149.00
             60.48,106.65 94.30,72.38 137.00,60.00
             135.29,66.90 131.16,72.25 127.55,78.28
             125.80,81.22 124.55,84.66 122.08,87.05
             122.08,87.05 109.09,95.55 109.09,95.55
             100.34,102.17 89.98,112.54 83.37,121.28
             79.44,126.47 76.88,132.02 73.91,137.72
             67.03,150.92 66.64,153.67 63.78,167.83
             63.78,167.83 62.05,173.09 62.05,173.09
             62.05,173.09 62.05,180.00 62.05,180.00
             59.68,202.47 65.60,224.23 76.37,243.92
             85.15,259.98 93.25,265.26 105.00,278.00 Z
           M 229.00,149.00
           C 228.37,142.06 225.59,135.87 221.94,130.00
             200.60,95.70 149.13,96.32 128.45,131.00
             125.08,136.66 122.60,142.40 122.00,149.00
             122.00,149.00 229.00,149.00 229.00,149.00 Z" />
</svg>
