<svg xmlns="http://www.w3.org/2000/svg" viewBox="0 0 350 350">
  <path id="font-size-icon"
        d="M 161.00,75.00
           C 161.00,75.00 171.50,76.02 171.50,76.02
             171.50,76.02 175.80,84.00 175.80,84.00
             175.80,84.00 183.80,105.00 183.80,105.00
             183.80,105.00 210.58,175.00 210.58,175.00
             210.58,175.00 221.00,202.00 221.00,202.00
             221.00,202.00 221.00,75.00 221.00,75.00
             221.00,75.00 280.00,75.00 280.00,75.00
             280.00,75.00 280.00,275.00 280.00,275.00
             280.00,275.00 186.00,275.00 186.00,275.00
             186.00,275.00 186.00,265.00 186.00,265.00
             186.00,265.00 194.00,264.17 194.00,264.17
             199.29,263.66 207.70,264.32 210.81,258.79
             213.00,254.90 209.41,247.92 207.95,244.00
             207.95,244.00 199.19,221.00 199.19,221.00
             198.22,218.45 196.83,213.51 194.58,212.02
             192.71,210.78 189.21,211.00 187.00,211.00
             187.00,211.00 130.00,211.00 130.00,211.00
             127.20,211.01 123.69,210.69 121.42,212.60
             119.29,214.38 117.82,219.33 116.81,222.00
             113.99,229.41 106.66,245.57 109.69,253.00
             114.07,263.78 128.03,264.78 138.00,265.00
             138.00,265.00 138.00,275.00 138.00,275.00
             138.00,275.00 68.00,275.00 68.00,275.00
             68.00,275.00 68.00,264.00 68.00,264.00
             72.59,263.96 76.82,263.75 81.00,261.56
             93.02,255.26 99.47,234.26 104.05,222.00
             104.05,222.00 143.42,121.00 143.42,121.00
             143.42,121.00 161.00,75.00 161.00,75.00 Z
           M 269.00,86.00
           C 269.00,86.00 232.00,86.00 232.00,86.00
             232.00,86.00 232.00,225.00 232.00,225.00
             232.02,235.20 235.16,240.62 238.81,250.00
             240.86,255.25 242.63,259.82 248.00,262.55
             252.43,264.79 263.67,264.00 269.00,264.00
             269.00,264.00 269.00,248.00 269.00,248.00
             269.00,248.00 248.00,248.00 248.00,248.00
             248.00,248.00 248.00,239.00 248.00,239.00
             248.00,239.00 269.00,239.00 269.00,239.00
             269.00,239.00 269.00,225.00 269.00,225.00
             269.00,225.00 248.00,225.00 248.00,225.00
             248.00,225.00 248.00,216.00 248.00,216.00
             248.00,216.00 269.00,216.00 269.00,216.00
             269.00,216.00 269.00,202.00 269.00,202.00
             269.00,202.00 248.00,202.00 248.00,202.00
             248.00,202.00 248.00,193.00 248.00,193.00
             248.00,193.00 269.00,193.00 269.00,193.00
             269.00,193.00 269.00,179.00 269.00,179.00
             269.00,179.00 248.00,179.00 248.00,179.00
             248.00,179.00 248.00,170.00 248.00,170.00
             248.00,170.00 269.00,170.00 269.00,170.00
             269.00,170.00 269.00,156.00 269.00,156.00
             269.00,156.00 248.00,156.00 248.00,156.00
             248.00,156.00 248.00,147.00 248.00,147.00
             248.00,147.00 269.00,147.00 269.00,147.00
             269.00,147.00 269.00,133.00 269.00,133.00
             269.00,133.00 248.00,133.00 248.00,133.00
             248.00,133.00 248.00,124.00 248.00,124.00
             248.00,124.00 269.00,124.00 269.00,124.00
             269.00,124.00 269.00,110.00 269.00,110.00
             269.00,110.00 248.00,110.00 248.00,110.00
             248.00,110.00 248.00,101.00 248.00,101.00
             248.00,101.00 269.00,101.00 269.00,101.00
             269.00,101.00 269.00,86.00 269.00,86.00 Z
           M 159.00,115.00
           C 159.00,115.00 147.20,143.00 147.20,143.00
             147.20,143.00 125.00,200.00 125.00,200.00
             125.00,200.00 191.00,200.00 191.00,200.00
             191.00,200.00 175.20,157.00 175.20,157.00
             175.20,157.00 159.00,115.00 159.00,115.00 Z" />
</svg>
