<svg xmlns="http://www.w3.org/2000/svg" viewBox="0 0 350 350">
  <path id="arrow-hint"
        d="M 252.00,169.00
           C 252.00,169.00 221.00,138.00 221.00,138.00
             221.00,138.00 201.00,118.00 201.00,118.00
             201.00,118.00 185.00,102.00 185.00,102.00
             183.22,100.22 178.94,96.24 178.17,94.00
             176.72,89.81 183.81,82.72 188.00,84.17
             190.09,84.89 193.37,88.38 195.00,90.00
             195.00,90.00 209.00,104.00 209.00,104.00
             209.00,104.00 257.00,152.00 257.00,152.00
             257.00,152.00 274.98,169.09 274.98,169.09
             277.08,171.14 279.95,173.76 278.83,177.00
             278.11,179.09 274.62,182.37 273.00,184.00
             273.00,184.00 259.00,198.00 259.00,198.00
             259.00,198.00 209.00,248.00 209.00,248.00
             209.00,248.00 194.00,262.98 194.00,262.98
             191.86,265.03 189.28,267.97 186.00,266.83
             182.88,265.75 177.93,260.59 179.17,257.00
             179.94,254.76 184.22,250.78 186.00,249.00
             186.00,249.00 200.00,235.00 200.00,235.00
             200.00,235.00 252.00,183.00 252.00,183.00
             252.00,183.00 70.00,183.00 70.00,183.00
             70.00,183.00 70.00,169.00 70.00,169.00
             70.00,169.00 252.00,169.00 252.00,169.00 Z" />
</svg>
