<svg xmlns="http://www.w3.org/2000/svg" viewBox="0 0 350 350">
  <path id="color-tool-icon"
        d="M 109.00,36.74
           C 127.48,32.27 141.78,47.07 151.25,61.00
             166.26,83.05 179.96,122.17 180.00,149.00
             180.00,149.00 180.00,166.00 180.00,166.00
             179.99,172.45 178.68,187.17 172.67,190.83
             163.60,196.34 147.80,181.13 142.42,175.00
             121.60,151.24 109.44,133.43 99.98,103.00
             97.24,94.19 95.01,85.27 95.00,76.00
             95.00,76.00 95.00,64.00 95.00,64.00
             95.13,53.31 99.05,41.93 109.00,36.74 Z
           M 273.00,299.00
           C 268.74,301.76 254.44,302.93 249.00,303.00
             249.00,303.00 226.00,303.00 226.00,303.00
             201.39,302.96 174.51,292.66 162.49,270.00
             157.83,261.22 155.96,251.86 156.00,242.00
             156.08,223.41 172.43,207.22 191.00,207.00
             195.59,206.95 199.55,206.83 204.00,208.22
             233.27,217.33 229.80,249.33 241.37,272.00
             248.54,286.04 260.04,291.62 273.00,299.00 Z" />
</svg>
