<svg xmlns="http://www.w3.org/2000/svg" viewBox="0 0 350 350">
  <path id="color-tool-icon"
        d="M 101.00,42.65
           C 118.28,39.07 130.02,50.28 139.99,63.00
             156.82,84.48 171.96,127.56 172.00,155.00
             172.02,165.72 172.79,176.53 170.10,187.00
             168.30,194.06 166.14,198.59 158.00,197.89
             147.79,197.02 133.33,180.51 126.87,173.00
             107.70,150.70 86.05,112.13 86.00,82.00
             86.00,82.00 86.00,72.00 86.00,72.00
             86.06,60.41 89.34,47.55 101.00,42.65 Z
           M 264.00,304.00
           C 259.74,306.76 245.44,307.93 240.00,308.00
             240.00,308.00 216.00,308.00 216.00,308.00
             191.62,307.96 164.43,297.38 152.49,275.00
             147.83,266.28 145.96,256.80 146.00,247.00
             146.08,228.48 162.51,212.22 181.00,212.00
             186.24,211.94 189.93,211.70 195.00,213.36
             224.41,222.95 219.78,254.07 232.79,278.00
             240.48,292.14 250.91,296.55 264.00,304.00 Z" />
</svg>
