<svg xmlns="http://www.w3.org/2000/svg" viewBox="0 0 350 350">
  <path id="font-change-icon"
        d="M 146.00,75.00
           C 148.62,75.00 154.43,74.59 156.50,76.02
             158.62,77.48 160.62,83.49 161.58,86.00
             161.58,86.00 170.68,110.00 170.68,110.00
             170.68,110.00 213.19,221.00 213.19,221.00
             213.19,221.00 226.41,255.00 226.41,255.00
             228.62,258.95 233.07,263.63 238.00,263.26
             242.42,262.93 246.87,259.76 246.57,255.00
             246.41,252.59 242.87,243.80 241.81,241.00
             241.81,241.00 233.80,219.00 233.80,219.00
             233.80,219.00 227.81,205.00 227.81,205.00
             227.81,205.00 201.58,135.00 201.58,135.00
             201.58,135.00 192.60,112.00 192.60,112.00
             191.44,109.07 188.47,101.82 188.30,99.00
             188.03,94.61 194.44,80.78 196.00,75.00
             198.62,75.00 204.43,74.59 206.50,76.02
             208.89,77.67 211.59,86.04 212.68,89.00
             212.68,89.00 224.58,120.00 224.58,120.00
             224.58,120.00 266.19,229.00 266.19,229.00
             269.65,238.08 274.86,257.08 283.00,261.99
             286.58,264.15 293.77,264.81 298.00,265.00
             298.00,265.00 298.00,275.00 298.00,275.00
             298.00,275.00 171.00,275.00 171.00,275.00
             171.00,275.00 171.00,265.00 171.00,265.00
             171.00,265.00 179.00,264.17 179.00,264.17
             184.29,263.66 192.70,264.32 195.81,258.79
             198.00,254.90 194.41,247.92 192.95,244.00
             192.95,244.00 184.19,221.00 184.19,221.00
             183.22,218.45 181.83,213.51 179.58,212.02
             177.71,210.78 174.21,211.00 172.00,211.00
             172.00,211.00 115.00,211.00 115.00,211.00
             112.20,211.01 108.69,210.69 106.42,212.60
             104.29,214.38 102.82,219.33 101.81,222.00
             98.99,229.41 91.66,245.57 94.69,253.00
             99.07,263.78 113.03,264.78 123.00,265.00
             123.00,265.00 123.00,275.00 123.00,275.00
             123.00,275.00 53.00,275.00 53.00,275.00
             53.00,275.00 53.00,264.00 53.00,264.00
             57.59,263.96 61.82,263.75 66.00,261.56
             78.02,255.26 84.47,234.26 89.05,222.00
             89.05,222.00 128.42,121.00 128.42,121.00
             128.42,121.00 146.00,75.00 146.00,75.00 Z
           M 144.00,115.00
           C 144.00,115.00 132.20,143.00 132.20,143.00
             132.20,143.00 110.00,200.00 110.00,200.00
             110.00,200.00 176.00,200.00 176.00,200.00
             176.00,200.00 160.20,157.00 160.20,157.00
             160.20,157.00 144.00,115.00 144.00,115.00 Z" />
</svg>
